<svg xmlns="http://www.w3.org/2000/svg" viewBox="0 0 1200 1200">
  <path fill="#fff" d="M0 0h1200v1200H0z"/>
  <circle cx="600" cy="600" r="570"/>
  <circle cx="600" cy="600" r="481" fill="#fff"/>
  <g>
    <path d="M640.6 598.8v203.5c0 18.6-6.5 33.3-23.6 41.8-17 8.5-32.2 4.5-46.9-6.8-50-38-100-76-150-114-2.4-1.8-5.9-3-9-3-26.1-.5-52.3.4-78.4-1.2-17.1-1.1-29-16.1-29-33.4V513.7c.1-19.3 15.3-34 34.5-34.2 24-.2 48 .1 72-.2 3.5 0 7.6-1.4 10.3-3.5 50.6-38.4 101-76.9 151.4-115.5 14.1-10.8 29.3-13.5 45.3-5.7 16.2 7.9 23 21.8 23 39.5v204.7z"/>
    <path d="M916.8 602.6c-2.6 76.6-33.3 140.6-92.7 190.7-13.6 11.5-31 9.8-42.6-3.7-11.2-13.1-9.9-30.6 3.8-42.1 35.2-29.6 58.7-66.4 66.7-111.7 12.8-72.2-9.4-132.7-64.3-181.1-16.2-14.3-18.3-32.1-4.6-46.3 10.9-11.3 27.2-12.9 39.3-2.9 53.5 44 83.8 100.7 92.3 169.2.6 4.5.8 9 1.1 13.4.3 9.9.3 14.4.3 14.4z"/>
    <path d="M803.9 600c-1.2 43-16.9 79.4-51.4 106.6-14.7 11.6-33.7 8.7-46-6.6-9.7-12.1-6.6-27.6 7.9-39.6 38.2-31.6 38.1-85.7-.3-120.5-10.1-9.2-14.1-20.3-9.9-33.3 4.1-12.6 13.5-20.5 26.6-20.5 7.5 0 16.5 2.8 22.3 7.5 34.2 26.8 49.5 63.2 50.8 106.4z"/>
  </g>
</svg>